<svg viewBox="0 0 20 20" fill="currentColor" xmlns="http://www.w3.org/2000/svg"><path d="M12.203 10l7.477-7.477c.207-.207.32-.48.32-.773 0-.293-.113-.57-.32-.773L19.023.32A1.078 1.078 0 0 0 18.25 0c-.293 0-.566.113-.773.32L10 7.797 2.523.32A1.084 1.084 0 0 0 1.75 0c-.293 0-.57.113-.773.32L.32.977a1.096 1.096 0 0 0 0 1.546L7.797 10 .32 17.477c-.207.207-.32.48-.32.773 0 .293.113.57.32.773l.657.657c.203.207.48.32.773.32.293 0 .566-.113.773-.32L10 12.203l7.477 7.477c.207.207.48.32.773.32.293 0 .57-.113.773-.32l.657-.657c.207-.203.32-.48.32-.773 0-.293-.113-.566-.32-.773zm0 0"></path></svg>