<svg  viewBox="0 0 12 12" fill="currentColor"  xmlns="http://www.w3.org/2000/svg"><path d="M6 0a4.221 4.221 0 0 0-3.59 6.438l3.352 5.394a.344.344 0 0 0 .297.168h.003a.348.348 0 0 0 .297-.172l3.266-5.45A4.221 4.221 0 0 0 6 0zm3.02 6.02l-2.965 4.953-3.047-4.907A3.5 3.5 0 0 1 2.48 4.22 3.528 3.528 0 0 1 6 .699a3.528 3.528 0 0 1 3.52 3.52c0 .636-.176 1.258-.5 1.8zm0 0"></path><path d="M6 2.11a2.11 2.11 0 1 0 .002 4.22A2.11 2.11 0 0 0 6 2.11zm0 3.519a1.41 1.41 0 1 1-.001-2.82A1.41 1.41 0 0 1 6 5.63zm0 0"></path></svg>